<?xml version="1.0"?>
<svg width="1064.62" height="798.95" xmlns="http://www.w3.org/2000/svg" xmlns:svg="http://www.w3.org/2000/svg" xmlns:xlink="http://www.w3.org/1999/xlink" data-name="Layer 1">
 <defs>
  <linearGradient id="9ef7ef10-53c7-4b47-a18d-df8c769a82a9-48" x1="0.5" x2="0.5" y1="1" y2="0">
   <stop offset="0" stop-color="gray" stop-opacity="0.25"/>
   <stop offset="0.54" stop-color="gray" stop-opacity="0.12"/>
   <stop offset="1" stop-color="gray" stop-opacity="0.1"/>
  </linearGradient>
  <linearGradient id="f123eb9f-f47a-40a3-adfc-57afba59094e-49" x1="567.66" x2="567.66" xlink:href="#9ef7ef10-53c7-4b47-a18d-df8c769a82a9-48" y1="564.9" y2="200"/>
 </defs>
 <title>fishing</title>
 <g class="layer">
  <title>Layer 1</title>
  <path d="m873.12,477.77l-0.8,0.07l0.25,-0.62l-1,0.41l1,-2.63s-3.25,1.31 -9.27,3.45c-147.81,6.89 -457.1,-118.52 -457.1,-118.52l-171.2,23.51a36.06,36.06 0 0 1 -2.82,-2.95l0.76,3.09q-0.4,-0.44 -0.76,-0.87l0.27,1.08l-0.27,0l0.42,0.58l19.59,79.46s349.12,192.36 559.23,167.91l59.81,-151.16l1.89,-2.81z" fill="url(#9ef7ef10-53c7-4b47-a18d-df8c769a82a9-48)" id="svg_3" transform="translate(-67.69 -50.53)"/>
  <path d="m411.59,365s311.61,126.32 449.75,113.47l-92.09,137.07l-333,-103.87l-162.8,-73.89l76,-51.4l62.14,-21.38z" fill="#00b0ff" id="svg_4" transform="translate(-67.69 -50.53)"/>
  <path d="m411.59,365s311.61,126.32 449.75,113.47l-92.09,137.07l-333,-103.87l-162.8,-73.89l76,-51.4l62.14,-21.38z" id="svg_5" opacity="0.1" transform="translate(-67.69 -50.53)"/>
  <polygon fill="#fff" id="svg_6" opacity="0.1" points="331.58 352.45 414.57 371.19 245.38 401.17 205.76 365.83 331.58 352.45"/>
  <polygon fill="#fff" id="svg_7" opacity="0.1" points="368.52 429.01 466.51 393.14 535.58 416.16 414.57 461.14 368.52 429.01"/>
  <polygon fill="#fff" id="svg_8" opacity="0.1" points="503.45 469.7 611.07 440.26 706.91 466.49 605.18 500.76 503.45 469.7"/>
  <polygon fill="#00b0ff" id="svg_9" points="176.31 337.46 343.9 314.44 343.9 355.13 203.62 375.47 176.31 337.46"/>
  <polygon fill="#fff" id="svg_10" opacity="0.1" points="177.38 339.6 343.9 314.44 343.9 355.13 203.62 375.47 177.38 339.6"/>
  <path d="m656.68,558c-10,-9.87 -17.91,-21.59 -22.09,-34.95c-3.21,-10.29 -6.08,-20.34 -6.08,-23.59c0,-5.69 -7.91,-27.1 -17.68,-37.42c-0.34,-0.36 -0.69,-0.71 -1,-1c-1.7,-6.72 -5.09,-23.67 0.79,-34.19a48.63,48.63 0 0 0 3.59,-8.05a95.56,95.56 0 0 1 16,-29.75a35.58,35.58 0 0 0 3.74,-5.49c2.45,0.42 3.89,-0.26 3.59,-2.67c0,-0.09 0,-0.18 0,-0.27c1.13,-0.26 1.72,-1.08 1.52,-2.69c-1.49,-11.86 4.48,-48.93 4.48,-48.93a142.15,142.15 0 0 0 7.38,-52c-1.49,-28.17 -31.36,-34.1 -31.36,-34.1l-2.47,2.45c-2,-1.23 -4.24,-2.61 -6.51,-4.07a3.75,3.75 0 0 0 2,-2.07c2.59,-5.37 2.72,-12.73 3.09,-18.55a17.52,17.52 0 0 0 -0.26,-5.63a13.07,13.07 0 0 0 -2.28,-4.35a26.05,26.05 0 0 0 -19.57,-10.27c-2.48,-0.1 -5,0.16 -7.43,0.16c-4.56,0 -9.12,-0.88 -13.66,-0.5s-9.34,2.38 -11.35,6.45c-1.26,2.55 -1.27,5.62 -2.76,8c-1.72,2.79 -5.07,4.21 -7,6.86a8.56,8.56 0 0 0 -1.63,5a3.47,3.47 0 0 0 0.35,1.69a6.69,6.69 0 0 0 1.67,1.62a6.55,6.55 0 0 1 1.28,8.1a8,8 0 0 1 6.34,6.13a2.53,2.53 0 0 0 0.54,1.41a1.91,1.91 0 0 0 1,0.42c2.91,0.5 5.85,-0.87 8.05,-2.84c0.18,0.33 0.35,0.65 0.55,1a21,21 0 0 0 26.14,8.4q0.62,0.78 1.22,1.61a33.84,33.84 0 0 1 4.06,7.43l-2.3,2.28a89.89,89.89 0 0 0 -5.45,9.86a87.68,87.68 0 0 0 -8.12,22.56c-5.42,5.36 -13.8,15 -14.8,23.92c0,0 -38.83,19.28 -49.28,8.9s-23.89,7.41 -20.91,10.38s11.95,8.9 22.4,3l41.83,0a47.36,47.36 0 0 0 18,-6.27c-0.74,2 -1.66,4.07 -2.68,6.18c-1.57,3 -3.26,6 -4.84,8.69c-0.87,0.71 -1.73,1.4 -2.59,2.06c-5.35,2.21 -12.08,5 -19.07,8a30.1,30.1 0 0 0 -10.76,4.62c-16.14,7 -30.75,13.82 -30.32,15.24c-1.08,0.71 -1.64,1.24 -1.49,1.52s0.28,0.62 0.49,1.14c-1.15,4.23 -1.37,12.88 1,30c6,43 -7.47,50.41 -7.47,50.41s-10.45,13.34 -22.4,11.86s-1.49,10.38 9,8.9c7.05,-1 22.27,-2 31.41,-2.55a5.61,5.61 0 0 0 5.09,-7a45,45 0 0 1 -0.66,-20.07c2.25,-11.16 7.88,-32.4 9.89,-44.13l0,-0.13c3,-3 8.59,-7.13 15.48,-6.15c3.59,0.51 10,-2.84 16.88,-7.44c-3.6,20.49 -6.35,42.5 -3.44,50.44c6,16.31 11.95,23.72 11.95,23.72s2.87,0.13 6.9,0.08l1.93,3l27,41.44s23.89,34.1 1.49,38.55c0,0 -17.92,4.45 -10.45,10.38c0,0 52.27,1.48 53.76,-3c0.36,-1.15 -0.4,-2.44 -1.72,-3.74z" fill="url(#f123eb9f-f47a-40a3-adfc-57afba59094e-49)" id="svg_15" transform="translate(-67.69 -50.53)"/>
  <path d="m623.9,251.8s-20.32,40.64 -21.77,20.32a32.48,32.48 0 0 0 -6.07,-16.76a40.13,40.13 0 0 0 -14.25,-12.26s11.61,-21.77 10.16,-16c-0.74,3 7.61,9.35 16,14.88c7.95,5.31 15.93,9.82 15.93,9.82z" fill="#ffb9b9" id="svg_16" transform="translate(-67.69 -50.53)"/>
  <path d="m528.11,452.1a44.35,44.35 0 0 0 0.64,19.65a5.48,5.48 0 0 1 -4.94,6.89c-8.89,0.53 -23.68,1.51 -30.53,2.49c-10.16,1.45 -20.32,-10.16 -8.71,-8.71s21.77,-11.61 21.77,-11.61s13.06,-7.26 7.26,-49.35c-2.31,-16.75 -2.09,-25.23 -1,-29.36a6.61,6.61 0 0 1 1.35,-2.86s0,0 0,0a2.21,2.21 0 0 1 1.16,-0.7a3.47,3.47 0 0 1 2.79,1s18.87,17.42 20.32,21.77c0.36,1.07 0.1,3.85 -0.55,7.61c-1.9,11.47 -7.37,32.25 -9.56,43.18z" fill="#ffb9b9" id="svg_17" transform="translate(-67.69 -50.53)"/>
  <path d="m528.11,452.1a44.35,44.35 0 0 0 0.64,19.65a5.48,5.48 0 0 1 -4.94,6.89c-8.89,0.53 -23.68,1.51 -30.53,2.49c-10.16,1.45 -20.32,-10.16 -8.71,-8.71s21.77,-11.61 21.77,-11.61s13.06,-7.26 7.26,-49.35c-2.31,-16.75 -2.09,-25.23 -1,-29.36a6.61,6.61 0 0 1 1.35,-2.86s0,0 0,0a2.21,2.21 0 0 1 1.16,-0.7a3.47,3.47 0 0 1 2.79,1s18.87,17.42 20.32,21.77c0.36,1.07 0.1,3.85 -0.55,7.61c-1.9,11.47 -7.37,32.25 -9.56,43.18z" id="svg_18" opacity="0.05" transform="translate(-67.69 -50.53)"/>
  <path d="m655.84,556.61c-1.45,4.35 -52.25,2.9 -52.25,2.9c-7.26,-5.81 10.16,-10.16 10.16,-10.16c21.77,-4.35 -1.45,-37.74 -1.45,-37.74l-26.3,-40.61l-5.67,-8.78s7.26,-10.16 20.32,-8.71c3,0.33 6.07,2.39 8.94,5.46c9.49,10.1 17.19,31.06 17.19,36.63c0,3.18 2.79,13 5.91,23.09c4.06,13.08 11.79,24.54 21.47,34.21c1.31,1.35 2.04,2.62 1.68,3.71z" fill="#ffb9b9" id="svg_19" transform="translate(-67.69 -50.53)"/>
  <path d="m537.72,408.91a25.37,25.37 0 0 0 -3.8,4c-10.7,-1.34 -18.93,-24.85 -21.29,-30.81c-0.2,-0.51 -0.36,-0.89 -0.48,-1.12s0.51,-0.91 1.83,-1.74c0,0 0,0 0,0l1.16,-0.7a3.47,3.47 0 0 1 2.79,1s18.87,17.42 20.32,21.77c0.38,1.07 0.12,3.84 -0.53,7.6z" id="svg_20" opacity="0.1" transform="translate(-67.69 -50.53)"/>
  <path d="m583.26,347.6s-71.12,29 -69.67,31.93s10.16,30.48 21.77,31.93c0,0 7.26,-10.16 17.42,-8.71s43.54,-29 43.54,-29l23.22,-17.42l-36.28,-8.73z" fill="#4c4c78" id="svg_21" transform="translate(-67.69 -50.53)"/>
  <path d="m583.26,347.6s-71.12,29 -69.67,31.93s10.16,30.48 21.77,31.93c0,0 7.26,-10.16 17.42,-8.71s43.54,-29 43.54,-29l23.22,-17.42l-36.28,-8.73z" id="svg_22" opacity="0.05" transform="translate(-67.69 -50.53)"/>
  <path d="m610.84,463.71c0,6.05 -15.4,7.2 -24.81,7.33l-5.67,-8.78s7.26,-10.16 20.32,-8.71c3,0.33 6.07,2.39 8.94,5.46c0.66,2.89 1.22,4.7 1.22,4.7z" id="svg_23" opacity="0.1" transform="translate(-67.69 -50.53)"/>
  <path d="m577.46,354.86s-17.42,74 -11.61,90s11.61,23.22 11.61,23.22s31.93,1.45 31.93,-7.26c0,0 -7.26,-23.22 0,-36.29a47.79,47.79 0 0 0 3.49,-7.88a93.76,93.76 0 0 1 15.51,-29.13c3.53,-4.36 6.23,-9.29 5.67,-13.79c-1.45,-11.62 -56.6,-18.87 -56.6,-18.87z" fill="#4c4c78" id="svg_24" transform="translate(-67.69 -50.53)"/>
  <path d="m589.07,292.44s-17.42,14.56 -18.87,27.56c0,0 -37.74,18.87 -47.9,8.71s-23.22,7.29 -20.3,10.18s11.61,8.71 21.77,2.9l40.63,0s27.58,-2.9 29,-24.67s-4.33,-24.68 -4.33,-24.68z" fill="#ffb9b9" id="svg_25" transform="translate(-67.69 -50.53)"/>
  <path d="m589.07,292.44s-17.42,14.56 -18.87,27.56c0,0 -37.74,18.87 -47.9,8.71s-23.22,7.29 -20.3,10.18s11.61,8.71 21.77,2.9l40.63,0s27.58,-2.9 29,-24.67s-4.33,-24.68 -4.33,-24.68z" id="svg_26" opacity="0.05" transform="translate(-67.69 -50.53)"/>
  <path d="m604.31,240.92c-0.26,0.94 0.39,-0.87 0,0c-2.12,4.8 -3.38,12.44 -8.24,14.44a40.13,40.13 0 0 0 -14.25,-12.26s11.61,-21.77 10.16,-16c-0.75,2.99 4.02,8.29 12.33,13.82z" id="svg_27" opacity="0.1" transform="translate(-67.69 -50.53)"/>
  <path d="m607.21,235.11a20.32,20.32 0 1 1 -20.32,-20.32a20.19,20.19 0 0 1 20.32,20.32z" fill="#ffb9b9" id="svg_28" transform="translate(-67.69 -50.53)"/>
  <path d="m596.33,267.77l20.32,-20.32s29,5.81 30.48,33.38a140.05,140.05 0 0 1 -7.26,50.8s-5.81,36.29 -4.35,47.9s-37.74,-17.42 -37.74,-17.42s-31.93,5.81 -30.48,1.45s18.87,-29 16,-37.74c-1.25,-3.75 -0.89,-12.06 -0.07,-20.32a86.21,86.21 0 0 1 13.13,-37.74l-0.03,0.01z" id="svg_29" opacity="0.1" transform="translate(-67.69 -50.53)"/>
  <path d="m641.32,328.73s-5.8,36.27 -4.32,47.9s-37.74,-17.42 -37.74,-17.42s-5,0.91 -11,1.74c-9.07,1.26 -20.36,2.34 -19.49,-0.29a13,13 0 0 1 0.83,-1.79c3.79,-7.16 17.77,-28.09 15.14,-36c-1.25,-3.74 -0.89,-12.06 -0.07,-20.32a86.3,86.3 0 0 1 13.14,-37.74l20.32,-20.32s29,5.81 30.48,33.38a140.05,140.05 0 0 1 -7.29,50.86z" fill="#cbcdda" id="svg_30" transform="translate(-67.69 -50.53)"/>
  <path d="m607.21,235.11a20.19,20.19 0 0 1 -1.71,8.17a21.29,21.29 0 0 1 -4.43,-5a81.63,81.63 0 0 0 -5.66,-7.72a3.86,3.86 0 0 0 -1.76,-1.38c-1.34,-0.38 -2.7,0.84 -3.08,2.19a12.54,12.54 0 0 0 0,4.17a4.84,4.84 0 0 1 -1.09,3.92c-1.73,1.61 -4.53,0.49 -6.5,-0.83s-4.44,-2.79 -6.53,-1.68a6.08,6.08 0 0 0 -1.92,1.93a49.56,49.56 0 0 1 -5.07,6.68a20.32,20.32 0 1 1 37.74,-10.45l0.01,0z" id="svg_31" opacity="0.1" transform="translate(-67.69 -50.53)"/>
  <path d="m614.31,222.78a17.26,17.26 0 0 0 -0.25,-5.51a12.83,12.83 0 0 0 -2.21,-4.25a25.27,25.27 0 0 0 -19,-10.06c-2.41,-0.09 -4.81,0.16 -7.22,0.16c-4.43,0 -8.86,-0.86 -13.28,-0.49s-9.08,2.33 -11,6.31c-1.22,2.5 -1.23,5.5 -2.68,7.87c-1.67,2.73 -4.93,4.12 -6.8,6.72a8.42,8.42 0 0 0 -1.58,4.89a3.42,3.42 0 0 0 0.34,1.65a6.53,6.53 0 0 0 1.62,1.58a6.44,6.44 0 0 1 1.24,7.93a7.76,7.76 0 0 1 6.16,6a2.49,2.49 0 0 0 0.52,1.38a1.85,1.85 0 0 0 1,0.41c2.91,0.51 5.87,-0.93 8,-2.95s3.69,-4.6 5.4,-7a5.93,5.93 0 0 1 1.91,-1.93c2.09,-1.11 4.55,0.38 6.52,1.69s4.78,2.43 6.51,0.81a4.81,4.81 0 0 0 1.09,-3.91a12.36,12.36 0 0 1 0,-4.17c0.38,-1.35 1.73,-2.57 3.08,-2.19a3.79,3.79 0 0 1 1.74,1.39a81,81 0 0 1 5.67,7.72c1.88,2.91 7.5,9.8 10.24,4.09c2.5,-5.24 2.67,-12.45 2.98,-18.14z" fill="#b96b6b" id="svg_32" transform="translate(-67.69 -50.53)"/>
  <path d="m584,322.2s21.77,-1.45 27.58,2.9s29,2.9 29,2.9" id="svg_33" opacity="0.1" transform="translate(-67.69 -50.53)"/>
  <path d="m632.61,314.22s-7.26,14.51 -7.26,18.87s-5.81,10.16 -5.81,10.16s-16.4,9 -31.31,17.71c-9.07,1.26 -20.36,2.34 -19.49,-0.29a13,13 0 0 1 0.83,-1.79c15.47,-9.42 36.91,-36 36.91,-36c0,-13.06 7.26,-36.29 7.26,-36.29s17.42,-8.71 23.22,0s-4.35,27.63 -4.35,27.63z" id="svg_34" opacity="0.05" transform="translate(-67.69 -50.53)"/>
  <path d="m244,384.77l19.27,78.17s336.25,185.26 538.64,161.7l58.9,-148.85s-145.16,58.68 -299.2,31.7a153,153 0 0 1 -17.48,-4.17c-46.03,-13.78 -269.42,-82.08 -300.13,-118.55z" id="svg_35" opacity="0.1" transform="translate(-67.69 -50.53)"/>
  <path d="m244,386.91l19.27,78.17s336.24,185.25 538.63,161.7l58.9,-148.85s-145.16,58.68 -299.2,31.7a153,153 0 0 1 -17.48,-4.17c-46.02,-13.78 -269.41,-82.08 -300.12,-118.55z" fill="#00b0ff" id="svg_36" transform="translate(-67.69 -50.53)"/>
  <rect fill="#535461" height="278.65" id="svg_37" transform="translate(-126.14 408.8) rotate(-49.88)" width="7.5" x="460.85" y="153.18"/>
  <path d="m610.84,283.74s-7.26,23.26 -7.26,36.26c0,0 -30.48,37.74 -45,39.19s-23.22,10.16 -17.42,13.06s13.06,7.26 21.77,0s53.7,-31.93 53.7,-31.93s5.81,-5.81 5.81,-10.16s7.26,-18.87 7.26,-18.87s10.16,-18.87 4.35,-27.58s-23.21,0.03 -23.21,0.03z" fill="#ffb9b9" id="svg_38" transform="translate(-67.69 -50.53)"/>
  <path d="m628.26,260.51s-26.13,-2.9 -21.77,34.83c0,0 17.42,-10.16 31.93,0c0,0.01 5.8,-27.57 -10.16,-34.83z" id="svg_39" opacity="0.1" transform="translate(-67.69 -50.53)"/>
  <path d="m628.26,257.61s-26.13,-2.9 -21.77,34.83c0,0 17.42,-10.16 31.93,0c0,0 5.8,-27.57 -10.16,-34.83z" fill="#cbcdda" id="svg_40" transform="translate(-67.69 -50.53)"/>
  <line fill="none" id="svg_41" stroke="#535461" stroke-miterlimit="10" stroke-width="2" x1="296.78" x2="288.21" y1="158.86" y2="589.1"/>
  <path d="m334.49,608.57s-32.12,19.27 -11.78,62.11" fill="none" id="svg_42" opacity="0.15" stroke="#6c63ff" stroke-miterlimit="10" transform="translate(-67.69 -50.53)"/>
  <path d="m349.48,616.07s-32.12,19.27 -11.78,62.11" fill="none" id="svg_43" opacity="0.15" stroke="#6c63ff" stroke-miterlimit="10" transform="translate(-67.69 -50.53)"/>
  <path d="m366.61,608.57s32.12,19.27 11.78,62.11" fill="none" id="svg_44" opacity="0.15" stroke="#6c63ff" stroke-miterlimit="10" transform="translate(-67.69 -50.53)"/>
  <path d="m354.83,619.28s32.12,19.27 11.78,62.11" fill="none" id="svg_45" opacity="0.15" stroke="#6c63ff" stroke-miterlimit="10" transform="translate(-67.69 -50.53)"/>
 </g>
</svg>